<?xml version="1.0" standalone="no"?>
<!DOCTYPE svg PUBLIC "-//W3C//DTD SVG 20010904//EN"
 "http://www.w3.org/TR/2001/REC-SVG-20010904/DTD/svg10.dtd">
<svg version="1.0" xmlns="http://www.w3.org/2000/svg"
 width="225.000000pt" height="225.000000pt" viewBox="0 0 225.000000 225.000000"
 preserveAspectRatio="xMidYMid meet">

<g transform="translate(0.000000,225.000000) scale(0.100000,-0.100000)"
fill="#000000" stroke="none">
<path d="M1393 1820 c-18 -11 -46 -43 -62 -72 -17 -29 -88 -152 -159 -273
-114 -196 -131 -220 -153 -218 -14 1 -17 0 -6 -3 9 -3 17 -9 17 -12 -1 -4 -31
-59 -69 -122 l-67 -115 -235 -5 -234 -6 233 -2 234 -2 -30 -52 c-16 -29 -69
-120 -116 -202 -76 -133 -86 -156 -86 -199 0 -42 5 -54 33 -82 19 -19 46 -37
60 -41 39 -9 93 4 122 29 13 12 73 107 132 210 59 103 112 189 117 190 4 1 59
-86 121 -193 120 -208 148 -240 212 -240 75 0 133 56 133 127 0 50 -5 60 -134
283 l-97 165 238 5 c266 6 287 10 317 74 20 43 20 79 0 121 -31 67 -42 69
-311 75 l-243 5 115 200 c121 211 133 245 102 305 -32 63 -122 88 -184 50z"/>
<path d="M543 1253 c65 -2 168 -2 230 0 62 1 9 3 -118 3 -126 0 -177 -2 -112
-3z"/>
<path d="M913 1253 c9 -2 25 -2 35 0 9 3 1 5 -18 5 -19 0 -27 -2 -17 -5z"/>
<path d="M322 1125 c0 -16 2 -22 5 -12 2 9 2 23 0 30 -3 6 -5 -1 -5 -18z"/>
</g>
</svg>
